<svg xmlns="http://www.w3.org/2000/svg" viewBox="0 0 1080 355" width="1080" height="355">
  <rect width="1080" height="355" fill="#f4dfc2"/>
  <path d="M0 270 C120 240 210 246 320 230 C455 210 560 220 665 190 C760 165 850 172 960 195 C1015 207 1050 230 1080 252 L1080 355 L0 355 Z" fill="#efd2aa"/>
  <path d="M0 0 H1080 V238 C1010 210 948 196 880 190 C798 183 735 156 682 132 C610 99 543 93 466 105 C378 119 315 160 243 173 C151 190 70 173 0 160 Z" fill="#9b6a4f"/>
  <path d="M0 0 H1080 V96 C1000 73 918 61 835 62 C746 63 690 46 636 34 C558 18 480 18 394 35 C318 50 270 83 209 101 C122 126 57 114 0 104 Z" fill="#7d5948" opacity=".55"/>
  <path d="M76 163 L164 164 L204 147 L240 158 L285 158 L324 178 L390 165 L438 135 L532 70 L620 72 L700 64 L779 126 L847 134 L923 102 L1050 95" fill="none" stroke="#cf2323" stroke-width="7" stroke-linecap="round" stroke-linejoin="round"/>
  <path d="M134 221 L225 222 L313 273 L445 238 L509 242 L604 235 L671 201 L746 166 L832 205 L965 205" fill="none" stroke="#cf2323" stroke-width="6" stroke-linecap="round" stroke-linejoin="round" opacity=".85"/>
  <path d="M74 166 v64 M101 150 v86 M160 226 v45 M316 178 v90 M511 241 v52 M744 166 v88 M965 205 v45" stroke="#d9b98d" stroke-width="8" stroke-linecap="round" opacity=".85"/>
  <path d="M35 210 h75 v26 h-75z M145 207 h55 v28 h-55z M292 253 h54 v32 h-54z M481 226 h60 v33 h-60z M579 215 h61 v32 h-61z M724 140 h48 v48 h-48z M922 184 h88 v36 h-88z" fill="#c89f72" stroke="#4d3227" stroke-width="2" opacity=".95"/>
  <circle cx="98" cy="150" r="23" fill="#dc2626"/><text x="98" y="158" text-anchor="middle" font-size="26" fill="#fff" font-weight="900">127</text>
  <circle cx="211" cy="151" r="23" fill="#dc2626"/><text x="211" y="159" text-anchor="middle" font-size="26" fill="#fff" font-weight="900">133</text>
  <circle cx="282" cy="157" r="23" fill="#dc2626"/><text x="282" y="165" text-anchor="middle" font-size="26" fill="#fff" font-weight="900">135</text>
  <circle cx="327" cy="178" r="23" fill="#dc2626"/><text x="327" y="186" text-anchor="middle" font-size="26" fill="#fff" font-weight="900">148</text>
  <circle cx="159" cy="225" r="23" fill="#dc2626"/><text x="159" y="233" text-anchor="middle" font-size="26" fill="#fff" font-weight="900">98</text>
  <circle cx="319" cy="274" r="23" fill="#dc2626"/><text x="319" y="282" text-anchor="middle" font-size="26" fill="#fff" font-weight="900">78</text>
  <circle cx="535" cy="64" r="23" fill="#dc2626"/><text x="535" y="72" text-anchor="middle" font-size="26" fill="#fff" font-weight="900">5</text>
  <circle cx="700" cy="63" r="23" fill="#dc2626"/><text x="700" y="71" text-anchor="middle" font-size="26" fill="#fff" font-weight="900">4</text>
  <circle cx="930" cy="97" r="23" fill="#dc2626"/><text x="930" y="105" text-anchor="middle" font-size="26" fill="#fff" font-weight="900">3</text>
  <circle cx="1050" cy="96" r="23" fill="#dc2626"/><text x="1050" y="104" text-anchor="middle" font-size="22" fill="#fff" font-weight="900">168</text>
  <circle cx="747" cy="167" r="23" fill="#dc2626"/><text x="747" y="175" text-anchor="middle" font-size="26" fill="#fff" font-weight="900">13</text>
  <circle cx="665" cy="198" r="23" fill="#dc2626"/><text x="665" y="206" text-anchor="middle" font-size="26" fill="#fff" font-weight="900">37</text>
  <circle cx="608" cy="235" r="23" fill="#dc2626"/><text x="608" y="243" text-anchor="middle" font-size="26" fill="#fff" font-weight="900">43</text>
  <circle cx="512" cy="240" r="23" fill="#dc2626"/><text x="512" y="248" text-anchor="middle" font-size="26" fill="#fff" font-weight="900">44</text>
  <circle cx="966" cy="203" r="23" fill="#dc2626"/><text x="966" y="211" text-anchor="middle" font-size="26" fill="#fff" font-weight="900">9</text>
  <path d="M20 210 C35 170 80 170 95 210 C78 218 47 218 20 210 Z" fill="#22c55e" opacity=".95"/><circle cx="58" cy="202" r="21" fill="none" stroke="#053" stroke-width="7"/><text x="94" y="230" font-size="30" fill="#22c55e" font-weight="900">出口</text>
  <path d="M840 219 C858 178 902 180 918 219 C890 230 865 230 840 219 Z" fill="#22c55e" opacity=".95"/><circle cx="879" cy="212" r="21" fill="none" stroke="#053" stroke-width="7"/><text x="920" y="254" font-size="30" fill="#22c55e" font-weight="900">入口</text>
</svg>
